<svg xmlns="http://www.w3.org/2000/svg" xmlns:xlink="http://www.w3.org/1999/xlink"><symbol id="icon-checked" viewBox="0 0 26 26"><path d="M.3 14c-.2-.2-.3-.5-.3-.7s.1-.5.3-.7l1.4-1.4c.4-.4 1-.4 1.4 0l.1.1 5.5 5.9c.2.2.5.2.7 0L22.8 3.3h.1c.4-.4 1-.4 1.4 0l1.4 1.4c.4.4.4 1 0 1.4l-16 16.6c-.2.2-.4.3-.7.3-.3 0-.5-.1-.7-.3L.5 14.3.3 14z"/></symbol><symbol id="icon-down-arrow" viewBox="0 0 512.171 512.171"><path d="M479.046 283.925c-1.664-3.989-5.547-6.592-9.856-6.592H352.305V10.667C352.305 4.779 347.526 0 341.638 0H170.971c-5.888 0-10.667 4.779-10.667 10.667v266.667H42.971a10.702 10.702 0 00-9.856 6.571c-1.643 3.989-.747 8.576 2.304 11.627l212.8 213.504c2.005 2.005 4.715 3.136 7.552 3.136s5.547-1.131 7.552-3.115l213.419-213.504a10.645 10.645 0 002.304-11.628z"/></symbol><symbol id="icon-mail" viewBox="0 0 483.3 483.3"><path d="M424.3 57.75H59.1c-32.6 0-59.1 26.5-59.1 59.1v249.6c0 32.6 26.5 59.1 59.1 59.1h365.1c32.6 0 59.1-26.5 59.1-59.1v-249.5c.1-32.6-26.4-59.2-59-59.2zm32.1 308.7c0 17.7-14.4 32.1-32.1 32.1H59.1c-17.7 0-32.1-14.4-32.1-32.1v-249.5c0-17.7 14.4-32.1 32.1-32.1h365.1c17.7 0 32.1 14.4 32.1 32.1v249.5h.1z"/><path d="M304.8 238.55l118.2-106c5.5-5 6-13.5 1-19.1-5-5.5-13.5-6-19.1-1l-163 146.3-31.8-28.4c-.1-.1-.2-.2-.2-.3-.7-.7-1.4-1.3-2.2-1.9L78.3 112.35c-5.6-5-14.1-4.5-19.1 1.1-5 5.6-4.5 14.1 1.1 19.1l119.6 106.9-119.1 111.5c-5.4 5.1-5.7 13.6-.6 19.1 2.7 2.8 6.3 4.3 9.9 4.3 3.3 0 6.6-1.2 9.2-3.6l120.9-113.1 32.8 29.3c2.6 2.3 5.8 3.4 9 3.4s6.5-1.2 9-3.5l33.7-30.2 120.2 114.2c2.6 2.5 6 3.7 9.3 3.7 3.6 0 7.1-1.4 9.8-4.2 5.1-5.4 4.9-14-.5-19.1l-118.7-112.7z"/></symbol><symbol id="icon-pin" viewBox="0 0 524.71 524.71"><path d="M475.493 213.138C475.493 95.425 380.067 0 262.355 0 144.641 0 49.217 95.425 49.217 213.138c0 68.629 32.443 129.672 82.822 168.655L264.536 524.71l130.641-144.885c48.945-39.054 80.316-99.203 80.316-166.687zm-212.629-62.166c34.333 0 62.166 27.832 62.166 62.166s-27.833 62.166-62.166 62.166c-34.334 0-62.166-27.832-62.166-62.166s27.832-62.166 62.166-62.166z"/></symbol></svg>